<svg width="28" height="26" viewBox="0 0 28 26" fill="none" xmlns="http://www.w3.org/2000/svg">
<path d="M1.8125 10.5469H4.85938V19.5781H2.75C2.56352 19.5781 2.38468 19.6621 2.25282 19.8115C2.12095 19.961 2.04688 20.1637 2.04688 20.375C2.04688 20.5863 2.12095 20.789 2.25282 20.9385C2.38468 21.0879 2.56352 21.1719 2.75 21.1719H25.25C25.4365 21.1719 25.6153 21.0879 25.7472 20.9385C25.879 20.789 25.9531 20.5863 25.9531 20.375C25.9531 20.1637 25.879 19.961 25.7472 19.8115C25.6153 19.6621 25.4365 19.5781 25.25 19.5781H23.1406V10.5469H26.1875C26.3405 10.5467 26.4894 10.49 26.6114 10.3853C26.7334 10.2806 26.822 10.1336 26.8636 9.96673C26.9052 9.79981 26.8977 9.62206 26.842 9.46046C26.7864 9.29886 26.6858 9.16223 26.5555 9.07133L14.368 0.571327C14.2573 0.494278 14.1299 0.453491 14 0.453491C13.8701 0.453491 13.7427 0.494278 13.632 0.571327L1.44453 9.07133C1.31418 9.16223 1.21357 9.29886 1.15796 9.46046C1.10235 9.62206 1.09478 9.79981 1.13641 9.96673C1.17803 10.1336 1.26658 10.2806 1.3886 10.3853C1.51062 10.49 1.65945 10.5467 1.8125 10.5469ZM6.26562 10.5469H10.4844V19.5781H6.26562V10.5469ZM16.1094 10.5469V19.5781H11.8906V10.5469H16.1094ZM21.7344 19.5781H17.5156V10.5469H21.7344V19.5781ZM14 2.17969L23.7031 8.95312H4.29688L14 2.17969ZM27.8281 24.625C27.8281 24.8363 27.754 25.039 27.6222 25.1885C27.4903 25.3379 27.3115 25.4219 27.125 25.4219H0.875C0.68852 25.4219 0.509677 25.3379 0.377816 25.1885C0.245954 25.039 0.171875 24.8363 0.171875 24.625C0.171875 24.4137 0.245954 24.211 0.377816 24.0615C0.509677 23.9121 0.68852 23.8281 0.875 23.8281H27.125C27.3115 23.8281 27.4903 23.9121 27.6222 24.0615C27.754 24.211 27.8281 24.4137 27.8281 24.625Z" fill="#8C8C8C"/>
</svg>
